<?xml version="1.0" encoding="utf-8"?>
<!-- Generator: Adobe Illustrator 13.0.0, SVG Export Plug-In . SVG Version: 6.00 Build 14948)  -->
<!DOCTYPE svg PUBLIC "-//W3C//DTD SVG 1.1//EN" "http://www.w3.org/Graphics/SVG/1.1/DTD/svg11.dtd">
<svg version="1.1" id="Capa_1" xmlns="http://www.w3.org/2000/svg" xmlns:xlink="http://www.w3.org/1999/xlink" x="0px" y="0px"
	 width="800px" height="800px" viewBox="0 0 800 800" enable-background="new 0 0 800 800" xml:space="preserve">
<g>
	<g>
		<g>
			<g>
				<path fill="#392726" stroke="#000000" d="M173.171,563.246c-17.561,17.561-17.561,45.999,0,63.561
					c8.78,8.779,20.288,13.154,31.795,13.154s23.015-4.375,31.795-13.154L384.35,479.188l-63.591-63.53L173.171,563.246z"/>
				<polygon fill="#392726" stroke="#000000" points="542.037,289.706 606.316,256.471 639.969,191.413 608.594,160.037 
					543.564,193.721 510.271,257.94 432.087,336.214 463.793,367.98 				"/>
				<path fill="#392726" stroke="#000000" d="M556.121,460.309l-6.054-0.6c-10.968,0-21.367,2.248-31.076,5.844L334.483,281.015
					c3.596-9.709,5.844-20.108,5.844-31.076l-0.599-6.054c-3.177-46.779-41.714-83.849-89.302-83.849
					c-13.845,0-26.821,3.386-38.538,8.991l59.725,59.724c3.146,3.147,5.305,6.862,6.743,10.789
					c3.925,10.608,1.798,23.015-6.743,31.585c-5.844,5.844-13.515,8.78-21.187,8.78c-3.536,0-7.042-0.779-10.399-2.038
					c-3.925-1.499-7.642-3.596-10.789-6.772l-59.723-59.695c-5.604,11.717-8.99,24.693-8.99,38.538
					c0,47.587,37.069,86.125,83.848,89.302l6.054,0.6c10.968,0,21.367-2.248,31.076-5.813L465.98,518.536
					c-3.536,9.709-5.783,20.107-5.783,31.075l0.628,6.054c3.117,46.81,41.685,83.849,89.272,83.849
					c13.846,0,26.851-3.326,38.538-8.99l-59.725-59.725c-3.117-3.117-5.304-6.861-6.803-10.758
					c-3.926-10.607-1.798-23.045,6.803-31.615c5.784-5.844,13.516-8.779,21.187-8.779c3.536,0,7.012,0.749,10.429,2.037
					c3.925,1.469,7.671,3.566,10.758,6.742l59.725,59.725c5.634-11.747,8.989-24.693,8.989-38.538
					C639.969,502.023,602.9,463.484,556.121,460.309z"/>
			</g>
		</g>
	</g>
</g>
</svg>
