<?xml version="1.0" encoding="utf-8"?>
<!-- Generator: Adobe Illustrator 13.0.0, SVG Export Plug-In . SVG Version: 6.00 Build 14948)  -->
<!DOCTYPE svg PUBLIC "-//W3C//DTD SVG 1.1//EN" "http://www.w3.org/Graphics/SVG/1.1/DTD/svg11.dtd">
<svg version="1.1" id="Capa_1" xmlns="http://www.w3.org/2000/svg" xmlns:xlink="http://www.w3.org/1999/xlink" x="0px" y="0px"
	 width="800px" height="800px" viewBox="0 0 800 800" enable-background="new 0 0 800 800" xml:space="preserve">
<g>
	<g>
		<g>
			<g>
				<path fill="#FFFFFF" d="M21.952,672.077c-29.268,29.268-29.268,76.665,0,105.934c14.634,14.634,33.812,21.925,52.992,21.925
					c19.18,0,38.358-7.291,52.992-21.925l245.98-246.031L267.932,426.096L21.952,672.077z"/>
				<polygon fill="#FFFFFF" points="636.729,216.177 743.861,160.786 799.949,52.355 747.656,0.062 639.275,56.201 583.785,163.234 
					453.479,293.69 506.321,346.633 				"/>
				<path fill="#FFFFFF" d="M660.201,500.515l-10.089-0.999c-18.28,0-35.611,3.746-51.793,9.74L290.805,201.692
					c5.994-16.182,9.739-33.513,9.739-51.793l-0.999-10.089C294.252,61.845,230.022,0.062,150.709,0.062
					c-23.076,0-44.702,5.644-64.23,14.984l99.541,99.541c5.244,5.245,8.841,11.437,11.238,17.981
					c6.542,17.68,2.997,38.358-11.238,52.642c-9.74,9.74-22.525,14.634-35.311,14.634c-5.894,0-11.737-1.298-17.332-3.396
					c-6.542-2.497-12.736-5.994-17.981-11.287L15.858,85.669c-9.34,19.528-14.984,41.154-14.984,64.23
					c0,79.312,61.782,143.542,139.748,148.836l10.089,0.999c18.28,0,35.611-3.746,51.793-9.689l307.463,307.515
					c-5.893,16.182-9.639,33.513-9.639,51.793l1.048,10.089c5.195,78.015,69.475,139.747,148.787,139.747
					c23.075,0,44.751-5.543,64.23-14.983l-99.541-99.541c-5.195-5.194-8.841-11.437-11.338-17.93
					c-6.543-17.68-2.997-38.407,11.338-52.691c9.64-9.739,22.525-14.634,35.311-14.634c5.894,0,11.687,1.249,17.381,3.396
					c6.542,2.448,12.786,5.944,17.93,11.238l99.541,99.541c9.39-19.579,14.983-41.155,14.983-64.23
					C799.949,570.039,738.167,505.809,660.201,500.515z"/>
			</g>
		</g>
	</g>
</g>
</svg>
